<svg width="606" height="606" viewBox="0 0 606 606" fill="none" xmlns="http://www.w3.org/2000/svg">
<circle cx="303" cy="303" r="303" fill="white"/>
<path d="M255.014 363.445H190.764L180.998 393H128.056L194.105 211.815H252.187L317.979 393H264.78L255.014 363.445ZM242.421 324.895L222.889 266.299L203.614 324.895H242.421Z" fill="black"/>
<path d="M402.759 394.799C381.685 394.799 364.38 389.83 350.845 379.893C337.31 369.784 330.028 355.392 329 336.717H382.713C383.227 343.056 385.112 347.682 388.367 350.595C391.622 353.508 395.82 354.964 400.96 354.964C405.586 354.964 409.355 353.85 412.268 351.623C415.352 349.224 416.894 345.969 416.894 341.857C416.894 336.546 414.41 332.434 409.441 329.521C404.472 326.608 396.42 323.353 385.283 319.755C373.461 315.814 363.866 312.045 356.499 308.447C349.303 304.678 342.964 299.281 337.481 292.256C332.17 285.06 329.514 275.722 329.514 264.243C329.514 252.592 332.427 242.655 338.252 234.431C344.077 226.036 352.13 219.696 362.41 215.413C372.69 211.13 384.341 208.988 397.362 208.988C418.436 208.988 435.227 213.957 447.734 223.894C460.413 233.66 467.18 247.452 468.037 265.271H413.296C413.125 259.788 411.411 255.676 408.156 252.935C405.072 250.194 401.046 248.823 396.077 248.823C392.308 248.823 389.224 249.937 386.825 252.164C384.426 254.391 383.227 257.561 383.227 261.673C383.227 265.1 384.512 268.098 387.082 270.668C389.823 273.067 393.164 275.208 397.105 277.093C401.046 278.806 406.871 281.034 414.581 283.775C426.06 287.716 435.484 291.656 442.851 295.597C450.39 299.366 456.815 304.763 462.126 311.788C467.609 318.641 470.35 327.379 470.35 338.002C470.35 348.796 467.609 358.476 462.126 367.043C456.815 375.61 449.019 382.377 438.739 387.346C428.63 392.315 416.637 394.799 402.759 394.799Z" fill="#00AF91"/>
</svg>
